<svg xmlns="http://www.w3.org/2000/svg" width="512" height="512"><path d="M0 0 C4.31702276 3.23090532 8.10728823 6.94561229 11.91918945 10.74804688 C12.7287207 11.52083984 13.53825195 12.29363281 14.37231445 13.08984375 C20.81472839 19.4836153 20.81472839 19.4836153 21.51293945 23.68945312 C21.41918945 26.81054687 21.41918945 26.81054687 20.41918945 29.81054688 C26.67126271 37.68212755 26.67126271 37.68212755 35.04418945 42.43164062 C37.32855606 42.31375258 37.32855606 42.31375258 39.3840332 41.74414062 C41.41918945 41.81054688 41.41918945 41.81054688 43.84887695 43.88476562 C83.25880001 88.74499719 104.99713904 148.1911421 104.61450195 207.75195312 C104.6107588 209.49885392 104.60791802 211.24575685 104.60592651 212.99266052 C104.59839232 217.52824998 104.57883535 222.06370558 104.55651855 226.59924316 C104.5358363 231.25234162 104.5268776 235.9054623 104.5168457 240.55859375 C104.49557675 249.64263604 104.46156896 258.72658021 104.41918945 267.81054688 C105.39678223 267.79483643 106.374375 267.77912598 107.3815918 267.76293945 C111.05305548 267.70811298 114.72448397 267.67400782 118.39624023 267.64575195 C119.97703157 267.63078417 121.55778224 267.6104025 123.13842773 267.58422852 C135.24629387 267.38894035 145.64364239 267.60175765 155.37231445 275.70898438 C161.79138867 282.29956058 164.45580205 289.09748831 164.70043945 298.12304688 C164.73782227 299.36441406 164.77520508 300.60578125 164.8137207 301.88476562 C164.84852539 303.18027344 164.88333008 304.47578125 164.91918945 305.81054688 C165.05684531 310.81204318 165.22326078 315.81099936 165.41918945 320.81054688 C165.44932129 321.94709717 165.47945313 323.08364746 165.51049805 324.25463867 C165.7418742 330.3719311 165.7418742 330.3719311 168.45825195 335.70507812 C169.31161133 336.33800781 170.1649707 336.9709375 171.04418945 337.62304688 C171.95297852 338.34363281 172.86176758 339.06421875 173.7980957 339.80664062 C174.66305664 340.46792969 175.52801758 341.12921875 176.41918945 341.81054688 C182.40433322 347.23035879 187.5032305 353.42390619 192.41918945 359.81054688 C192.87455078 360.40061523 193.32991211 360.99068359 193.79907227 361.59863281 C218.46645151 393.99233694 231.84814059 433.37758965 231.73486328 474.04833984 C231.73164603 476.46820928 231.75547924 478.8869162 231.78051758 481.30664062 C231.78278607 482.86262869 231.78349617 484.41861999 231.7824707 485.97460938 C231.79628532 487.04650009 231.79628532 487.04650009 231.81037903 488.14004517 C231.769557 492.54387403 231.28291333 495.41272925 228.41918945 498.81054688 C223.89934154 501.54169192 220.54035201 502.18650949 215.2928896 502.19086361 C214.59534051 502.19552353 213.89779142 502.20018345 213.17910448 502.20498458 C210.84205523 502.21693402 208.50558741 502.20753962 206.16853333 502.19822693 C204.47589807 502.2023999 202.7832656 502.20787722 201.09063834 502.21454674 C196.4393287 502.22902542 191.78819589 502.22474902 187.13687646 502.21737993 C182.12034773 502.21265642 177.1038577 502.22515102 172.08734131 502.23539734 C162.25853879 502.25260806 152.42980014 502.25342045 142.60098646 502.24818444 C134.61113268 502.24414491 126.6212978 502.24558372 118.63144493 502.25093269 C116.92641806 502.25205533 116.92641806 502.25205533 115.18694621 502.25320064 C112.87781145 502.25473211 110.5686767 502.25627045 108.25954195 502.25781561 C86.59535134 502.27154945 64.93119681 502.26609726 43.26700702 502.25463039 C23.45164689 502.24470216 3.63638019 502.25763005 -16.17896553 502.28156459 C-36.5250916 502.30595499 -56.87117415 502.31556328 -77.21731454 502.30891186 C-88.64011972 502.30541886 -100.06285308 502.30765679 -111.4856472 502.32516289 C-121.21219265 502.33988432 -130.93861573 502.34052127 -140.66515877 502.32309198 C-145.62651768 502.31457823 -150.58765799 502.31244156 -155.54900551 502.32774353 C-160.09474031 502.3415898 -164.64006924 502.33682813 -169.18578056 502.31750429 C-170.82643092 502.31374373 -172.46711378 502.3166679 -174.10773518 502.32711595 C-184.49208543 502.38852139 -193.67215223 501.74965242 -202.58081055 495.81054688 C-205.68290038 495.44090338 -205.68290038 495.44090338 -209.2175293 495.39648438 C-210.51625977 495.3578125 -211.81499023 495.31914062 -213.15307617 495.27929688 C-214.52481627 495.24784171 -215.89656116 495.21659437 -217.26831055 495.18554688 C-218.65179839 495.14735491 -220.03526277 495.10830245 -221.41870117 495.06835938 C-224.80593505 494.97394171 -228.19316123 494.88836569 -231.58081055 494.81054688 C-231.66331055 495.40867187 -231.74581055 496.00679688 -231.83081055 496.62304688 C-232.85016093 499.59615215 -233.79720558 500.34462142 -236.58081055 501.81054688 C-239.26088734 502.11508015 -241.70263471 502.25501848 -244.3815918 502.24414062 C-245.13619186 502.24938248 -245.89079193 502.25462433 -246.66825867 502.26002502 C-248.26271335 502.26643747 -249.85721538 502.26511824 -251.45166016 502.2565918 C-253.87513963 502.24811047 -256.29623741 502.27680298 -258.71948242 502.30859375 C-260.27351818 502.31020683 -261.82755807 502.30962619 -263.3815918 502.30664062 C-264.09849686 502.3178746 -264.81540192 502.32910858 -265.55403137 502.34068298 C-271.08300699 502.2652166 -274.1777077 500.94960106 -278.58081055 497.81054688 C-281.27529609 494.43490504 -280.88607601 490.39603501 -280.8815918 486.24804688 C-280.88723648 485.50869904 -280.89288116 484.7693512 -280.8986969 484.00759888 C-280.91073118 481.60836847 -280.90445977 479.20977622 -280.89331055 476.81054688 C-280.8911554 475.99309998 -280.88900024 475.17565308 -280.88677979 474.33343506 C-280.83410576 461.94042329 -280.39877281 449.92803778 -277.58081055 437.81054688 C-277.28279541 436.51068848 -277.28279541 436.51068848 -276.97875977 435.18457031 C-267.79302123 396.33612104 -247.9949318 361.89537307 -218.58081055 334.81054688 C-217.53969116 334.27651245 -217.53969116 334.27651245 -216.47753906 333.73168945 C-213.96520192 331.18701434 -214.10849852 329.09777198 -214.07775879 325.62852478 C-214.09473816 324.38637962 -214.09473816 324.38637962 -214.11206055 323.11914062 C-214.10501099 322.25926041 -214.09796143 321.39938019 -214.09069824 320.51344299 C-214.06126003 316.8388015 -214.07772721 313.16469006 -214.09008789 309.48999023 C-214.11132799 285.75417601 -214.11132799 285.75417601 -205.27612305 276.34179688 C-197.69231622 269.49190684 -189.36819365 267.46818663 -179.36206055 267.61523438 C-178.24704163 267.61947922 -178.24704163 267.61947922 -177.10949707 267.62380981 C-174.76642837 267.63488531 -172.42376107 267.6599646 -170.08081055 267.68554688 C-168.47925362 267.69559306 -166.87769062 267.70471603 -165.27612305 267.71289062 C-161.37753405 267.73478297 -157.47924003 267.76922301 -153.58081055 267.81054688 C-153.58747238 266.87412354 -153.59413422 265.9377002 -153.60099792 264.97290039 C-153.66251641 256.03299942 -153.7071158 247.09314282 -153.73624706 238.15307617 C-153.75172842 233.55980427 -153.77263428 228.96670674 -153.80712891 224.37353516 C-154.10020107 184.24678831 -154.10020107 184.24678831 -150.58081055 164.81054688 C-150.35627197 163.56402344 -150.1317334 162.3175 -149.90039062 161.03320312 C-149.30842229 158.09872831 -148.63692523 155.20983784 -147.89331055 152.31054688 C-147.63912354 151.2919458 -147.38493652 150.27334473 -147.12304688 149.22387695 C-142.3672542 130.71172979 -136.00318778 112.96643727 -127.58081055 95.81054688 C-127.21342773 95.06192383 -126.84604492 94.31330078 -126.4675293 93.54199219 C-119.02414294 78.5697389 -109.85077653 64.99125188 -99.58081055 51.81054688 C-98.5734082 50.51117188 -98.5734082 50.51117188 -97.5456543 49.18554688 C-88.18396715 37.42656788 -77.77329303 26.52381758 -66.54956055 16.53710938 C-63.78463664 14.04756893 -61.20905201 11.40206727 -58.62719727 8.72485352 C-53.11139159 3.02615449 -47.86213368 -1.7947822 -40.58081055 -5.18945312 C-39.87956055 -5.52460937 -39.17831055 -5.85976562 -38.45581055 -6.20507812 C-24.98626564 -11.65232055 -11.47008823 -7.80637977 0 0 Z " fill="#010101" transform="translate(280.580810546875,9.189453125)"></path><path d="M0 0 C1.71706306 -0.01265991 1.71706306 -0.01265991 3.46881425 -0.02557558 C4.7218153 -0.01956553 5.97481635 -0.01355549 7.26578712 -0.00736332 C8.61392779 -0.01153658 9.96206494 -0.01701405 11.31019557 -0.02368313 C15.0137691 -0.03815785 18.71712047 -0.03388676 22.42070627 -0.02651632 C26.41535764 -0.0217919 30.40996045 -0.0342881 34.40459633 -0.04453373 C42.23025128 -0.06174174 50.05582602 -0.06255754 57.88149498 -0.05732083 C64.24192716 -0.05328137 70.60233561 -0.05472001 76.96276665 -0.06006908 C78.32003357 -0.06119172 78.32003357 -0.06119172 79.70472003 -0.06233703 C81.54285125 -0.06386849 83.38098246 -0.06540684 85.21911366 -0.066952 C102.46238367 -0.08068445 119.70560832 -0.07523427 136.94887729 -0.06376678 C152.7254334 -0.0538351 168.50187222 -0.06677263 184.27841024 -0.09070098 C200.47508229 -0.11508157 216.67169969 -0.12470232 232.86838973 -0.11804825 C241.9626555 -0.11455352 251.05683108 -0.11680472 260.15108299 -0.13429928 C267.89344489 -0.14900832 275.63565308 -0.14967381 283.37801193 -0.13222837 C287.32827995 -0.12370496 291.27827324 -0.12160127 295.22852707 -0.13687992 C298.84583405 -0.15069758 302.46263017 -0.1460021 306.07990737 -0.12664068 C308.00613486 -0.12108757 309.93238815 -0.13517671 311.85856664 -0.14999479 C318.5443941 -0.09293307 322.92491909 0.25353986 328.29743385 4.38031673 C332.30701073 9.30777529 332.87999278 13.86288856 332.82746315 20.07172298 C332.83619453 20.91362179 332.84492592 21.75552059 332.85392189 22.62293148 C332.87823408 25.3964459 332.87488662 28.16920937 332.8716526 30.94281673 C332.8841219 32.89554744 332.89846274 34.84826699 332.91457558 36.80097103 C332.95259062 41.9476414 332.96777296 47.09412016 332.97736549 52.24091244 C332.98979516 57.39681931 333.01931491 62.55261201 333.04938698 67.70844173 C333.05519342 68.70989223 333.06099987 69.71134274 333.06698227 70.74314022 C333.08465508 73.72636938 333.10303093 76.70959336 333.1216526 79.69281673 C333.12755283 80.66434689 333.13345306 81.63587704 333.13953209 82.6368475 C333.23347643 99.10494774 333.23347643 99.10494774 333.6294651 115.56781673 C333.65079002 116.46347347 333.67211494 117.35913021 333.69408607 118.28192806 C333.74762083 122.44297808 333.74762083 122.44297808 335.64122963 125.98700619 C337.45713942 127.56707623 337.45713942 127.56707623 340.29743385 129.38031673 C340.63801003 131.53510189 340.63801003 131.53510189 340.5904026 134.16937923 C340.58073463 135.11039486 340.57106667 136.05141048 340.56110573 137.02094173 C340.53596901 138.00578548 340.51083229 138.99062923 340.48493385 140.00531673 C340.4713987 140.99789486 340.45786354 141.99047298 340.44391823 143.01312923 C340.40849128 145.46939746 340.35909581 147.92458958 340.29743385 150.38031673 C339.32805885 150.83406673 338.35868385 151.28781673 337.35993385 151.75531673 C334.22663804 153.03817895 334.22663804 153.03817895 333.29743385 155.38031673 C333.20110441 157.98382535 333.16036552 160.5655136 333.15680885 163.16937923 C333.13846791 164.76704959 333.11889642 166.36470621 333.0982151 167.96234798 C333.06935526 170.47706729 333.04743667 172.99090987 333.04694557 175.50580502 C333.0226531 193.07619991 333.0226531 193.07619991 328.91120863 197.82608324 C322.2991083 204.19422577 314.76495426 203.95294722 306.12690163 203.89498043 C304.79338041 203.90031129 303.45986521 203.90738008 302.12636137 203.91602749 C298.47704263 203.93461036 294.82813091 203.92836514 291.17879558 203.91787446 C287.2373337 203.91087005 283.2959544 203.9268897 279.35451698 203.93987179 C271.63920822 203.96149573 263.92404704 203.96138913 256.20871794 203.95324624 C249.93750944 203.94694266 243.66634393 203.94808656 237.39513588 203.95451832 C236.05556391 203.9558708 236.05556391 203.9558708 234.68892989 203.95725061 C232.874637 203.95910183 231.06034412 203.96096439 229.24605125 203.96283817 C212.23926275 203.97941081 195.23255726 203.97070174 178.22577375 203.95385259 C162.6699183 203.93915367 147.11425596 203.95378766 131.55842537 203.98262275 C115.57973704 204.01202081 99.60113783 204.02298799 83.62242365 204.01344055 C81.81485972 204.01241801 80.00729578 204.0114234 78.19973183 204.01045704 C77.31040981 204.00998065 76.42108779 204.00950426 75.50481662 204.00901343 C69.24218845 204.00684998 62.97964473 204.01664965 56.71703529 204.03122807 C49.08343712 204.04875034 41.45008522 204.04863551 33.81649673 204.02587641 C29.92273684 204.01473358 26.02941085 204.01157227 22.13566971 204.03017712 C18.56890049 204.04700025 15.00294298 204.04060736 11.43622619 204.01596033 C9.53970862 204.00877754 7.64314671 204.02609359 5.74670362 204.04437166 C-1.2751552 203.96759729 -6.37924382 203.21547318 -11.70256615 198.38031673 C-17.54419485 191.41161838 -16.27235917 181.74353552 -16.23601341 173.16742611 C-16.24307741 171.41569449 -16.25182445 169.66396898 -16.2621212 167.91225338 C-16.2845694 163.1705051 -16.28168641 158.42909132 -16.27279973 153.68731022 C-16.26768012 149.72354139 -16.27499019 145.75983489 -16.2822718 141.79607248 C-16.29925584 132.4437271 -16.29571948 123.09154494 -16.27898216 113.73920345 C-16.26205527 104.10057258 -16.2779066 94.46239441 -16.31020504 84.82381296 C-16.33691746 76.53736162 -16.34417268 68.25105105 -16.33568996 59.96456099 C-16.33076644 55.0201735 -16.33294553 50.07605846 -16.35347748 45.13170528 C-16.371861 40.48247162 -16.36584337 35.83388843 -16.34127808 31.18468952 C-16.33627898 29.48196072 -16.33973653 27.77918212 -16.35242653 26.07649326 C-16.45856557 10.60757231 -16.45856557 10.60757231 -12.26241016 4.8181448 C-8.42204053 1.27818108 -5.19558932 0.00541377 0 0 Z " fill="#EEE6E3" transform="translate(97.70256614685059,292.61968326568604)"></path><path d="M0 0 C0.76828125 0.71027344 1.5365625 1.42054687 2.328125 2.15234375 C3.18535156 2.93738281 4.04257812 3.72242188 4.92578125 4.53125 C8.44669747 7.92771557 11.77451156 11.49573555 15.05859375 15.12109375 C18.2824353 17.64018854 20.52033054 17.97955262 24.578125 18.08984375 C26.75260567 17.15468321 26.75260567 17.15468321 28.578125 16.08984375 C30.78132433 18.15851938 32.96485475 20.24266169 35.140625 22.33984375 C35.76904297 22.92636719 36.39746094 23.51289062 37.04492188 24.1171875 C37.63466797 24.69082031 38.22441406 25.26445313 38.83203125 25.85546875 C39.38189697 26.37915039 39.9317627 26.90283203 40.49829102 27.44238281 C41.578125 29.08984375 41.578125 29.08984375 41.27441406 31.08447266 C41.04463867 31.74624512 40.81486328 32.40801758 40.578125 33.08984375 C40.06553523 37.40371804 40.18277005 40.03280445 42.81640625 43.45703125 C43.82749868 44.63812294 44.85318882 45.80682317 45.890625 46.96484375 C56.49550353 59.50619675 64.9442046 73.57584405 72.578125 88.08984375 C72.94647461 88.78706543 73.31482422 89.48428711 73.69433594 90.20263672 C86.45597109 114.73530309 94.30639966 141.59001069 96.578125 169.08984375 C91.45367759 168.50200913 86.81221636 167.3384797 81.93725586 165.63720703 C81.20769684 165.38828705 80.47813782 165.13936707 79.72647095 164.88290405 C78.15199786 164.34488899 76.57848112 163.80406858 75.00584221 163.26071548 C72.50412947 162.39674301 69.99974751 161.54095472 67.49452209 160.68722534 C61.26848166 158.56387936 55.04654823 156.42861864 48.82568359 154.29016113 C43.57018564 152.48362863 38.31257989 150.68351559 33.05185127 148.89226913 C30.60724875 148.05711631 28.1659346 147.21282584 25.72459412 146.36819458 C11.93178767 141.64163264 -1.02627508 138.56465318 -15.734375 138.65234375 C-16.91193359 138.63236328 -18.08949219 138.61238281 -19.30273438 138.59179688 C-39.21587479 138.60257822 -57.87619897 146.40631447 -76.45568848 152.80786133 C-79.93341329 154.00438868 -83.41404079 155.19240589 -86.89453125 156.38085938 C-90.8325262 157.72582393 -94.77003179 159.07211592 -98.70559692 160.42417908 C-102.27613448 161.65066684 -105.84876379 162.87087621 -109.421875 164.08984375 C-110.42919804 164.43637434 -110.42919804 164.43637434 -111.45687103 164.78990555 C-113.51517438 165.49726002 -115.57546696 166.1985315 -117.63623047 166.89868164 C-119.47699661 167.52789268 -119.47699661 167.52789268 -121.35494995 168.16981506 C-124.421875 169.08984375 -124.421875 169.08984375 -127.421875 169.08984375 C-126.87277026 142.63297889 -116.90708975 115.63151301 -105.421875 92.08984375 C-105.0913916 91.40438477 -104.7609082 90.71892578 -104.42041016 90.01269531 C-96.20367972 73.16621367 -85.74920434 57.21139055 -73.421875 43.08984375 C-72.43058728 41.91810645 -71.44112845 40.74482041 -70.453125 39.5703125 C-64.31695712 32.29923014 -58.17685936 25.27518298 -50.921875 19.08984375 C-48.09952599 16.67541237 -45.45731323 14.13910026 -42.859375 11.48828125 C-42.21291016 10.82957031 -41.56644531 10.17085937 -40.90039062 9.4921875 C-39.61086243 8.17083482 -38.32794602 6.84298707 -37.05273438 5.5078125 C-26.36137339 -5.44321196 -13.31433889 -10.50114793 0 0 Z " fill="#726D6D" transform="translate(271.421875,21.91015625)"></path><path d="M0 0 C3.02181414 -0.10867663 6.03966327 -0.18762754 9.0625 -0.25 C9.91005859 -0.28351563 10.75761719 -0.31703125 11.63085938 -0.3515625 C17.65688408 -0.44462852 21.18394991 0.2722209 26 4 C30.10020993 8.7941044 30.58173339 13.58014824 30.5300293 19.69140625 C30.53876068 20.53330505 30.54749207 21.37520386 30.55648804 22.24261475 C30.58080023 25.01612916 30.57745277 27.78889263 30.57421875 30.5625 C30.58668805 32.5152307 30.60102889 34.46795026 30.61714172 36.4206543 C30.65515677 41.56732467 30.67033911 46.71380342 30.67993164 51.8605957 C30.69236131 57.01650257 30.72188106 62.17229528 30.75195312 67.328125 C30.75775957 68.3295755 30.76356602 69.331026 30.76954842 70.36282349 C30.78722123 73.34605265 30.80559708 76.32927662 30.82421875 79.3125 C30.83011898 80.28403015 30.83601921 81.2555603 30.84209824 82.25653076 C30.93604257 98.724631 30.93604257 98.724631 31.33203125 115.1875 C31.35335617 116.08315674 31.37468109 116.97881348 31.39665222 117.90161133 C31.45018698 122.06266134 31.45018698 122.06266134 33.34379578 125.60668945 C35.15970557 127.18675949 35.15970557 127.18675949 38 129 C38.34057617 131.15478516 38.34057617 131.15478516 38.29296875 133.7890625 C38.28330078 134.73007812 38.27363281 135.67109375 38.26367188 136.640625 C38.23853516 137.62546875 38.21339844 138.6103125 38.1875 139.625 C38.17396484 140.61757813 38.16042969 141.61015625 38.14648438 142.6328125 C38.11105743 145.08908072 38.06166196 147.54427285 38 150 C37.030625 150.45375 36.06125 150.9075 35.0625 151.375 C31.92920418 152.65786221 31.92920418 152.65786221 31 155 C30.90367055 157.60350862 30.86293167 160.18519687 30.859375 162.7890625 C30.84103405 164.38673286 30.82146257 165.98438947 30.80078125 167.58203125 C30.77192141 170.09675055 30.75000281 172.61059314 30.74951172 175.12548828 C30.72521925 192.69588318 30.72521925 192.69588318 26.61377478 197.44576651 C20.00167445 203.81390903 12.46752041 203.57263049 3.82946777 203.5146637 C2.49594656 203.51999456 1.16243135 203.52706335 -0.17107248 203.53571075 C-3.82039122 203.55429362 -7.46930294 203.54804841 -11.11863828 203.53755772 C-15.06010015 203.53055332 -19.00147945 203.54657296 -22.94291687 203.55955505 C-30.65822563 203.581179 -38.37338681 203.58107239 -46.08871591 203.57292951 C-52.35992441 203.56662593 -58.63108992 203.56776983 -64.90229797 203.57420158 C-66.24186994 203.57555407 -66.24186994 203.57555407 -67.60850397 203.57693387 C-69.42279686 203.5787851 -71.23708973 203.58064766 -73.0513826 203.58252143 C-90.0581711 203.59909408 -107.0648766 203.590385 -124.0716601 203.57353585 C-139.62751556 203.55883694 -155.1831779 203.57347092 -170.73900849 203.60230602 C-186.71769681 203.63170408 -202.69629602 203.64267126 -218.6750102 203.63312382 C-220.48257413 203.63210128 -222.29013807 203.63110667 -224.09770203 203.6301403 C-224.98702404 203.62966391 -225.87634606 203.62918752 -226.79261723 203.6286967 C-233.0552454 203.62653324 -239.31778912 203.63633291 -245.58039856 203.65091133 C-253.21399673 203.6684336 -260.84734864 203.66831877 -268.48093712 203.64555968 C-272.37469701 203.63441685 -276.268023 203.63125553 -280.16176414 203.64986038 C-283.72853336 203.66668351 -287.29449087 203.66029063 -290.86120766 203.63564359 C-292.75772523 203.6284608 -294.65428714 203.64577685 -296.55073023 203.66405493 C-303.57434525 203.58726135 -308.67401738 202.83333966 -314 198 C-319.88363885 191.0108103 -318.53119785 181.26549888 -318.45410156 172.66015625 C-318.45297224 170.89545213 -318.45360861 169.13074612 -318.45587158 167.36604309 C-318.45701633 162.5917097 -318.4335458 157.81778063 -318.40557575 153.04354095 C-318.38052218 148.04809128 -318.37821698 143.05263171 -318.37347412 138.05712891 C-318.36105597 128.60478454 -318.32825004 119.15262586 -318.28807616 109.70036316 C-318.24332234 98.9362007 -318.22136233 88.17202924 -318.20129442 77.40779686 C-318.15951642 55.27176105 -318.08918691 33.13589224 -318 11 C-317.67 11 -317.34 11 -317 11 C-317 64.13 -317 117.26 -317 172 C-264.02828039 171.90954757 -264.02828039 171.90954757 -211.05664062 171.79101562 C-203.91707412 171.77296531 -196.7775072 171.75510131 -189.63793945 171.73754883 C-188.74310413 171.73534114 -187.84826882 171.73313345 -186.92631727 171.73085886 C-172.47763811 171.69548357 -158.028959 171.67062819 -143.58025258 171.64965298 C-128.75329139 171.62789471 -113.92638643 171.59484404 -99.09947306 171.55129844 C-89.94959701 171.52478218 -80.79979102 171.50708662 -71.64987845 171.50065396 C-65.37645451 171.4954 -59.10311876 171.47918276 -52.82974207 171.45433434 C-49.20968053 171.44031959 -45.58977686 171.43114842 -41.96968651 171.43499184 C-38.04399859 171.43903332 -34.11861466 171.41999377 -30.19297791 171.39872742 C-28.47847243 171.40599878 -28.47847243 171.40599878 -26.72933048 171.41341704 C-18.42870021 171.33904728 -12.10021776 170.10021776 -6 164 C-1.61795035 157.24249582 -0.88886505 150.47215435 -0.84178162 142.50160217 C-0.8319928 141.23827057 -0.82220398 139.97493896 -0.81211853 138.67332458 C-0.80621593 137.29141273 -0.80040538 135.90950048 -0.79467773 134.52758789 C-0.78508779 133.05859102 -0.77507707 131.58959684 -0.76467896 130.12060547 C-0.7377447 126.1480235 -0.71667332 122.1754298 -0.69667697 118.20280766 C-0.67474624 114.04545682 -0.64739235 109.88814169 -0.62062073 105.7308197 C-0.57078938 97.86518607 -0.52581525 89.99953251 -0.48259836 82.13386005 C-0.4331441 73.17616622 -0.37825644 64.21850824 -0.32291877 55.26084912 C-0.20924553 36.8405994 -0.1023748 18.42031581 0 0 Z " fill="#E7DCD7" transform="translate(400,293)"></path><path d="M0 0 C-0.15984375 0.57878906 -0.3196875 1.15757812 -0.484375 1.75390625 C-1.55219044 6.40537503 -1.67544594 10.48024663 0.25 14.8125 C3.37963369 18.75230824 3.37963369 18.75230824 8.046875 20.3203125 C12.12045751 20.5253586 14.67802246 20.14635343 18.4375 18.4375 C21.54954073 15.47726614 22.19882037 13.16613408 23 9 C27.60416626 9.60875755 31.56483324 10.84722956 35.875 12.5625 C37.02742187 13.01753906 38.17984375 13.47257812 39.3671875 13.94140625 C40.23601562 14.29074219 41.10484375 14.64007813 42 15 C42.04983765 20.78001685 42.08592481 26.55990564 42.10986328 32.34008789 C42.11985425 34.30202415 42.13345163 36.26394578 42.15087891 38.22583008 C42.30802642 56.38561189 41.18537969 72.87555994 30.68247986 88.48706055 C28.98848693 90.93487075 28.98848693 90.93487075 27.69581604 93.39306641 C25.3772813 96.88563327 23.15155999 99.45679274 18.94898605 100.51782227 C12.48834813 101.39443327 5.96917785 101.20936755 -0.53515625 101.125 C-2.65930004 101.12598443 -4.78344433 101.129937 -6.90757751 101.13671875 C-11.35056793 101.14095347 -15.79191999 101.11379351 -20.23461914 101.06347656 C-25.92031381 101.00096619 -31.60317772 101.00978069 -37.28904057 101.04122925 C-41.67223334 101.05877878 -46.05477273 101.04200863 -50.43789482 101.0145874 C-52.53377526 101.00491153 -54.62972507 101.00501451 -56.7256031 101.01519775 C-59.65846577 101.02359112 -62.5873843 100.98659599 -65.51977539 100.9375 C-66.379711 100.94852753 -67.23964661 100.95955505 -68.12564087 100.97091675 C-72.94383747 100.83561187 -75.45517641 100.06746216 -78.94920349 96.65136719 C-86.16584169 88.56594249 -90.87462517 78.2889815 -94 68 C-94.34224609 67.01306152 -94.68449219 66.02612305 -95.03710938 65.00927734 C-96.41885448 60.1323551 -96.24886466 55.28647741 -96.1953125 50.25390625 C-96.1924826 49.24279282 -96.18965271 48.23167938 -96.18673706 47.18992615 C-96.17559889 43.98066048 -96.15050597 40.77168042 -96.125 37.5625 C-96.11496198 35.37825926 -96.10583757 33.19401411 -96.09765625 31.00976562 C-96.07568043 25.67308068 -96.04226656 20.33656076 -96 15 C-94.42129618 14.34406234 -92.84006728 13.69420007 -91.2578125 13.046875 C-90.37754395 12.68432617 -89.49727539 12.32177734 -88.59033203 11.94824219 C-85.34701025 10.76096021 -82.42951588 10.29821877 -79 10 C-78.63648438 10.83144531 -78.63648438 10.83144531 -78.265625 11.6796875 C-77.93046875 12.40414062 -77.5953125 13.12859375 -77.25 13.875 C-76.92515625 14.59429687 -76.6003125 15.31359375 -76.265625 16.0546875 C-74.73918838 18.40087711 -73.61390521 19.05743939 -71 20 C-65.92117273 20.32766628 -61.64826017 20.32413009 -57 18 C-54.97812649 14.1748339 -54.7809377 10.96733472 -54.875 6.6875 C-54.89304688 5.61886719 -54.91109375 4.55023438 -54.9296875 3.44921875 C-54.95289063 2.64097656 -54.97609375 1.83273438 -55 1 C-53.783125 0.525625 -52.56625 0.05125 -51.3125 -0.4375 C-50.28576172 -0.83775391 -50.28576172 -0.83775391 -49.23828125 -1.24609375 C-34.83523389 -6.09738195 -14.34568533 -4.53021642 0 0 Z " fill="#FECABD" transform="translate(283,178)"></path><path d="M0 0 C0.76828125 0.71027344 1.5365625 1.42054687 2.328125 2.15234375 C3.18535156 2.93738281 4.04257812 3.72242188 4.92578125 4.53125 C8.44669747 7.92771557 11.77451156 11.49573555 15.05859375 15.12109375 C18.2824353 17.64018854 20.52033054 17.97955262 24.578125 18.08984375 C26.75260567 17.15468321 26.75260567 17.15468321 28.578125 16.08984375 C30.78132433 18.15851938 32.96485475 20.24266169 35.140625 22.33984375 C35.76904297 22.92636719 36.39746094 23.51289062 37.04492188 24.1171875 C37.63466797 24.69082031 38.22441406 25.26445313 38.83203125 25.85546875 C39.38189697 26.37915039 39.9317627 26.90283203 40.49829102 27.44238281 C41.578125 29.08984375 41.578125 29.08984375 41.27441406 31.08447266 C41.04463867 31.74624512 40.81486328 32.40801758 40.578125 33.08984375 C40.06553523 37.40371804 40.18277005 40.03280445 42.81640625 43.45703125 C43.82749868 44.63812294 44.85318882 45.80682317 45.890625 46.96484375 C56.49550353 59.50619675 64.9442046 73.57584405 72.578125 88.08984375 C72.94647461 88.78706543 73.31482422 89.48428711 73.69433594 90.20263672 C86.45597109 114.73530309 94.30639966 141.59001069 96.578125 169.08984375 C90.4730376 168.47239326 85.04898289 166.72584898 79.26953125 164.7109375 C78.30280991 164.37941177 77.33608856 164.04788605 76.34007263 163.70631409 C73.27154198 162.65250208 70.20608047 161.59006385 67.140625 160.52734375 C65.05293145 159.80867204 62.96504277 159.09056691 60.87695312 158.37304688 C55.77506637 156.61853234 50.67566754 154.85693752 45.578125 153.08984375 C45.49846245 152.21748329 45.49846245 152.21748329 45.41719055 151.32749939 C44.72635262 144.39605492 42.99033194 138.24993197 40.765625 131.65234375 C40.36964111 130.47728271 39.97365723 129.30222168 39.56567383 128.09155273 C26.10423261 89.28209078 2.49620933 50.50162939 -29.3984375 23.85546875 C-33.62447864 20.16788073 -37.49419108 16.08996447 -41.421875 12.08984375 C-38.05169305 4.44736044 -30.75023242 -1.22202866 -23.421875 -4.91015625 C-15.48345735 -7.83483644 -6.3783746 -5.03068578 0 0 Z " fill="#585353" transform="translate(271.421875,21.91015625)"></path><path d="M0 0 C0.00146656 0.62984488 0.00293312 1.25968975 0.00444412 1.90862083 C0.04157173 17.26744909 0.10066482 32.62601446 0.18390274 47.98465538 C0.22363271 55.41213699 0.25605573 62.83951358 0.27099609 70.26708984 C0.28404412 76.74452349 0.31108849 83.22172547 0.35461307 89.69902861 C0.37715769 93.12555549 0.39291494 96.55179738 0.39188385 99.978405 C0.39425657 103.81326547 0.42136406 107.64722838 0.45410156 111.48193359 C0.4490712 112.60547241 0.44404083 113.72901123 0.43885803 114.88659668 C0.59251461 126.56149347 3.94220938 132.58961251 11 142 C1.43 142 -8.14 142 -18 142 C-18.99 140.02 -19.98 138.04 -21 136 C-22.88631543 134.11368457 -26.14200693 134.75734708 -28.66015625 134.68359375 C-29.65685585 134.6524221 -29.65685585 134.6524221 -30.6736908 134.62062073 C-32.80318543 134.55506342 -34.93280668 134.49621215 -37.0625 134.4375 C-38.50326847 134.39432061 -39.94402399 134.35070651 -41.38476562 134.30664062 C-44.9230404 134.19937607 -48.46145869 134.09812629 -52 134 C-53.30081386 83.34163856 -37.12424613 38.15374042 -2.21484375 1.10546875 C-1 0 -1 0 0 0 Z " fill="#726D6D" transform="translate(67,362)"></path><path d="M0 0 C1.11204318 0.9320928 2.22107289 1.86778146 3.32885742 2.80493164 C3.94677658 3.32559708 4.56469574 3.84626251 5.20133972 4.38270569 C7.90993316 6.81818103 10.10871671 9.54827987 12.3125 12.4375 C12.78051025 13.04746826 13.24852051 13.65743652 13.73071289 14.28588867 C15.16825895 16.18025223 16.58673762 18.0874711 18 20 C18.4218457 20.56299805 18.84369141 21.12599609 19.27832031 21.70605469 C43.80825606 54.8477709 51 92.56877183 51 133 C32.52 133 14.04 133 -5 133 C-3.515 127.555 -3.515 127.555 -2 122 C-1.73852889 118.90312956 -1.57636519 116.02101569 -1.6015625 112.9375 C-1.59869232 112.13892578 -1.59582214 111.34035156 -1.59286499 110.51757812 C-1.59084667 108.85399656 -1.59621774 107.19039002 -1.60888672 105.52685547 C-1.62514661 102.97700966 -1.60887576 100.42870763 -1.58984375 97.87890625 C-1.59182325 96.25260068 -1.59566082 94.62629607 -1.6015625 93 C-1.59548981 92.24066162 -1.58941711 91.48132324 -1.5831604 90.69897461 C-1.62349277 86.63677985 -1.62349277 86.63677985 -3.32568359 83.04296875 C-5.76667658 81.52242019 -8.17609316 81.31376743 -11 81 C-9.515 80.505 -9.515 80.505 -8 80 C-8.33 72.74 -8.66 65.48 -9 58 C-7.02 57.34 -5.04 56.68 -3 56 C-0.80097174 52.70145762 -0.73590207 51.63579544 -0.68115234 47.79418945 C-0.65134781 46.20287956 -0.65134781 46.20287956 -0.62094116 44.579422 C-0.60938995 43.43559555 -0.59783875 42.2917691 -0.5859375 41.11328125 C-0.56657135 39.94113571 -0.5472052 38.76899017 -0.5272522 37.56132507 C-0.46739803 33.8117911 -0.42104717 30.06222652 -0.375 26.3125 C-0.33682564 23.77277295 -0.29777424 21.23305893 -0.2578125 18.69335938 C-0.16169165 12.46235503 -0.07666115 6.23127249 0 0 Z " fill="#585353" transform="translate(446,363)"></path><path d="M0 0 C0.01981934 1.08829102 0.03963867 2.17658203 0.06005859 3.29785156 C0.13695401 7.39083432 0.22553108 11.48349973 0.31738281 15.57617188 C0.35532993 17.33717519 0.39023797 19.09824702 0.421875 20.859375 C0.7765457 40.36626366 2.95109642 57.74826648 13.546875 74.609375 C15 77 15 77 16 80 C0.82 80 -14.36 80 -30 80 C-30 56.9 -30 33.8 -30 10 C-23.51569045 7.40627618 -17.11603689 4.93306941 -10.5 2.75 C-9.70335937 2.481875 -8.90671875 2.21375 -8.0859375 1.9375 C-2.25366709 0 -2.25366709 0 0 0 Z " fill="#706C6C" transform="translate(172,198)"></path><path d="M0 0 C9.9 3.3 19.8 6.6 30 10 C30 33.1 30 56.2 30 80 C14.82 80 -0.36 80 -16 80 C-14.7598161 77.51963221 -13.49593183 75.05078071 -12.1953125 72.6015625 C-4.77057921 58.44967385 -1.02291314 44.94412635 -0.68359375 28.90625 C-0.66281265 28.07411987 -0.64203156 27.24198975 -0.62062073 26.38464355 C-0.55583806 23.75650364 -0.49657588 21.12827375 -0.4375 18.5 C-0.39424678 16.70572029 -0.35063046 14.9114493 -0.30664062 13.1171875 C-0.19955551 8.744882 -0.09995495 4.37249742 0 0 Z " fill="#575252" transform="translate(340,198)"></path><path d="M0 0 C5.78615531 3.47901743 9.69079189 8.39417499 11.96264648 14.75683594 C13.20480479 20.30787306 13.00218071 26.03821994 12.95361328 31.70068359 C12.93753538 33.93258796 12.95351349 36.16268207 12.97265625 38.39453125 C12.98601273 47.28634577 12.48690095 54.09267573 7.375 61.6875 C2.29757382 66.65209448 -3.56976647 69.13414835 -10.625 69.6875 C-17.45123001 69.23987836 -23.51516596 67.35983404 -28.4375 62.4375 C-34.72082027 54.35894537 -34.78417034 45.95407889 -34.75317383 36.15917969 C-34.75001792 34.0743354 -34.77350726 31.99091914 -34.79882812 29.90625 C-34.84682938 19.99957576 -34.24543738 11.38850749 -27.1484375 3.9453125 C-19.71803992 -2.60293742 -9.16641125 -4.06418618 0 0 Z M-17.40112305 17.46679688 C-19.90572089 22.22936784 -19.00973387 28.2717974 -18.875 33.5 C-18.86919922 34.77939453 -18.86339844 36.05878906 -18.85742188 37.37695312 C-19.02630836 44.74323591 -19.02630836 44.74323591 -16.4375 51.4375 C-13.89480966 53.34451775 -12.58150107 53.44337759 -9.375 53.3125 C-5.86863898 52.26805204 -5.22368284 51.56875675 -3.4375 48.4375 C-2.88786135 44.3064093 -2.96452576 40.18516217 -2.99145508 36.02026367 C-2.99996104 34.00921098 -2.97119827 32.00100634 -2.93945312 29.99023438 C-2.94009766 28.71599609 -2.94074219 27.44175781 -2.94140625 26.12890625 C-2.93955322 24.96560791 -2.9377002 23.80230957 -2.93579102 22.60375977 C-3.53978956 18.79195584 -4.70954229 17.12523603 -7.4375 14.4375 C-11.6824175 13.53432606 -14.37189658 14.27538188 -17.40112305 17.46679688 Z " fill="#000000" transform="translate(86.4375,135.5625)"></path><path d="M0 0 C5.30485257 4.84611809 7.72453069 9.55915789 8.30639648 16.82714844 C8.3395599 18.25433494 8.36053625 19.68184228 8.37109375 21.109375 C8.38463646 22.25965179 8.38463646 22.25965179 8.39845276 23.4331665 C8.41290058 25.05013156 8.42182834 26.66715434 8.42553711 28.28417969 C8.43740076 30.72954501 8.48660651 33.17235603 8.53710938 35.6171875 C8.62762332 44.24392618 8.57179525 51.87614706 3 59 C-3.84200626 65.33081733 -9.22492877 66.36875717 -18.48046875 66.2734375 C-25.06779163 65.76165881 -28.97851027 63.37970645 -33.375 58.5625 C-37.7458399 53.30039946 -38.31687917 48.16222325 -38.3359375 41.48046875 C-38.3425943 40.66306717 -38.3492511 39.84566559 -38.35610962 39.00349426 C-38.36620878 37.27798706 -38.37092749 35.55244102 -38.37060547 33.8269043 C-38.37496886 31.2062026 -38.4112883 28.58719991 -38.44921875 25.96679688 C-38.45508973 24.28385987 -38.45905724 22.60091494 -38.4609375 20.91796875 C-38.47530853 20.14374069 -38.48967957 19.36951263 -38.50448608 18.57182312 C-38.45086002 12.08741396 -36.44827884 7.09993515 -32.4296875 2.01171875 C-22.83822832 -6.15789096 -10.45848429 -7.30993007 0 0 Z M-21 14 C-23.1471231 18.29424621 -22.2680606 23.98130031 -22.29516602 28.74853516 C-22.31238067 30.86036072 -22.35626939 32.97062059 -22.40039062 35.08203125 C-22.41051795 36.42707184 -22.41903393 37.77212571 -22.42578125 39.1171875 C-22.44036377 40.34034668 -22.45494629 41.56350586 -22.4699707 42.82373047 C-22.25184947 46.07367267 -22.25184947 46.07367267 -20.16088867 48.39892578 C-18.03485169 50.22808047 -18.03485169 50.22808047 -15 50.5 C-11.25172124 49.87528687 -10.30049766 48.98811827 -8 46 C-7.40115947 42.78249209 -7.40115947 42.78249209 -7.50390625 39.1875 C-7.50245102 38.53676514 -7.50099579 37.88603027 -7.49949646 37.21557617 C-7.50115167 35.84386707 -7.51267104 34.47213868 -7.53344727 33.10058594 C-7.5624121 31.00635539 -7.55404995 28.91465742 -7.54101562 26.8203125 C-7.54725361 25.48436275 -7.55564503 24.14842097 -7.56640625 22.8125 C-7.57615479 21.60207031 -7.58590332 20.39164063 -7.59594727 19.14453125 C-8.02917523 15.77294443 -8.6294643 14.38731257 -11 12 C-15.28589825 10.30819806 -17.40661845 11.30496384 -21 14 Z " fill="#000000" transform="translate(38,76)"></path><path d="M0 0 C5.40456658 4.76756426 8.71878171 9.5072912 9.30639648 16.80541992 C9.33969367 18.28021801 9.36057632 19.75533232 9.37109375 21.23046875 C9.38463646 22.41616203 9.38463646 22.41616203 9.39845276 23.62580872 C9.41292335 25.29582963 9.42183405 26.96590683 9.42553711 28.63598633 C9.43738336 31.1626223 9.4865525 33.68677305 9.53710938 36.21289062 C9.62700833 45.01085277 9.64107452 52.71572066 4 60 C1.6484375 62.25390625 1.6484375 62.25390625 -0.625 63.5625 C-1.38039063 64.01753906 -2.13578125 64.47257812 -2.9140625 64.94140625 C-8.79281572 67.92481847 -16.09439319 68.17423473 -22.390625 66.28125 C-29.69812163 62.82274014 -34.14498744 57.47208389 -37 50 C-37.51975056 47.1186054 -37.56310316 44.32897592 -37.53125 41.40625 C-37.5350769 40.61528931 -37.53890381 39.82432861 -37.54284668 39.00939941 C-37.5455502 37.34886389 -37.53829908 35.68828462 -37.52148438 34.02783203 C-37.50004978 31.50585759 -37.5213369 28.98673104 -37.546875 26.46484375 C-37.54423144 24.84113963 -37.53910588 23.21743727 -37.53125 21.59375 C-37.53934692 20.85080688 -37.54744385 20.10786377 -37.55578613 19.34240723 C-37.44379705 12.99767085 -35.40600438 7.91584817 -31.359375 3.01171875 C-21.65704321 -4.97151056 -11.0912143 -6.47438363 0 0 Z M-18.71069336 14.06811523 C-21.50221148 17.6431756 -21.63160792 19.41968616 -21.62890625 23.91015625 C-21.63083984 25.22951172 -21.63277344 26.54886719 -21.63476562 27.90820312 C-21.62227783 28.59019775 -21.60979004 29.27219238 -21.59692383 29.97485352 C-21.56252844 32.06077551 -21.57629467 34.14247478 -21.59570312 36.22851562 C-21.9127903 43.26010328 -21.9127903 43.26010328 -19.15209961 49.39233398 C-17.03552517 51.22975988 -17.03552517 51.22975988 -14 51.5 C-10.24530538 50.87421756 -9.30076462 49.99838053 -7 47 C-6.36843104 43.68622794 -6.36843104 43.68622794 -6.43359375 39.96875 C-6.42739517 39.29581909 -6.42119659 38.62288818 -6.41481018 37.92956543 C-6.40772559 36.51083824 -6.41086249 35.09202768 -6.42358398 33.67333984 C-6.43746204 31.50592834 -6.40336064 29.34282883 -6.36523438 27.17578125 C-6.36428317 25.79426978 -6.36614209 24.41275292 -6.37109375 23.03125 C-6.37036865 21.77892578 -6.36964355 20.52660156 -6.36889648 19.23632812 C-6.73065816 15.85346346 -6.73065816 15.85346346 -9.28930664 13.56054688 C-13.21169781 11.30242525 -15.10294463 11.31559434 -18.71069336 14.06811523 Z " fill="#000000" transform="translate(411,21)"></path><path d="M0 0 C5.40456658 4.76756426 8.71878171 9.5072912 9.30639648 16.80541992 C9.33969367 18.28021801 9.36057632 19.75533232 9.37109375 21.23046875 C9.38463646 22.41616203 9.38463646 22.41616203 9.39845276 23.62580872 C9.41292335 25.29582963 9.42183405 26.96590683 9.42553711 28.63598633 C9.43738336 31.1626223 9.4865525 33.68677305 9.53710938 36.21289062 C9.62700833 45.01085277 9.64107452 52.71572066 4 60 C1.6484375 62.25390625 1.6484375 62.25390625 -0.625 63.5625 C-1.38039063 64.01753906 -2.13578125 64.47257812 -2.9140625 64.94140625 C-8.79281572 67.92481847 -16.09439319 68.17423473 -22.390625 66.28125 C-29.69812163 62.82274014 -34.14498744 57.47208389 -37 50 C-37.51975056 47.1186054 -37.56310316 44.32897592 -37.53125 41.40625 C-37.5350769 40.61528931 -37.53890381 39.82432861 -37.54284668 39.00939941 C-37.5455502 37.34886389 -37.53829908 35.68828462 -37.52148438 34.02783203 C-37.50004978 31.50585759 -37.5213369 28.98673104 -37.546875 26.46484375 C-37.54423144 24.84113963 -37.53910588 23.21743727 -37.53125 21.59375 C-37.53934692 20.85080688 -37.54744385 20.10786377 -37.55578613 19.34240723 C-37.44379705 12.99767085 -35.40600438 7.91584817 -31.359375 3.01171875 C-21.65704321 -4.97151056 -11.0912143 -6.47438363 0 0 Z M-18.71069336 13.56054688 C-21.75692427 16.80656791 -21.63145695 18.6259032 -21.62890625 23.03125 C-21.63131821 23.70418091 -21.63373016 24.37711182 -21.63621521 25.07043457 C-21.63523833 26.48923655 -21.62188187 27.90807738 -21.59692383 29.32666016 C-21.56259765 31.49383478 -21.57626889 33.65693203 -21.59570312 35.82421875 C-21.5888043 37.20574646 -21.57913155 38.58726368 -21.56640625 39.96875 C-21.55552979 41.22107422 -21.54465332 42.47339844 -21.53344727 43.76367188 C-20.91046606 47.54318622 -20.04667277 48.74653358 -17 51 C-14 51.66666667 -14 51.66666667 -11 51 C-7.95332723 48.74653358 -7.08953394 47.54318622 -6.46655273 43.76367188 C-6.45023804 41.88518555 -6.45023804 41.88518555 -6.43359375 39.96875 C-6.42739517 39.29581909 -6.42119659 38.62288818 -6.41481018 37.92956543 C-6.40772559 36.51083824 -6.41086249 35.09202768 -6.42358398 33.67333984 C-6.43746204 31.50592834 -6.40336064 29.34282883 -6.36523438 27.17578125 C-6.36428317 25.79426978 -6.36614209 24.41275292 -6.37109375 23.03125 C-6.37036865 21.77892578 -6.36964355 20.52660156 -6.36889648 19.23632812 C-6.73065816 15.85346346 -6.73065816 15.85346346 -9.28930664 13.56054688 C-12.9926164 11.42855048 -15.0073836 11.42855048 -18.71069336 13.56054688 Z " fill="#000000" transform="translate(503,237)"></path><path d="M0 0 C3.78239671 0.65690619 7.21841526 1.720131 10.8125 3.0625 C11.78832031 3.42472656 12.76414062 3.78695312 13.76953125 4.16015625 C14.50558594 4.43730469 15.24164063 4.71445313 16 5 C16.04983765 10.78001685 16.08592481 16.55990564 16.10986328 22.34008789 C16.11985425 24.30202415 16.13345163 26.26394578 16.15087891 28.22583008 C16.30798577 46.38091419 15.19061827 62.88206242 4.68151855 78.48609924 C2.9864459 80.93439244 2.9864459 80.93439244 1.70446777 83.40171814 C-0.61268299 86.91753824 -2.83408322 89.48075082 -7.07208252 90.49675369 C-13.61523318 91.29945193 -20.205748 91.03027286 -26.78125 90.87890625 C-28.92213256 90.86210622 -31.06304987 90.84930164 -33.20397949 90.84031677 C-38.82072609 90.80606248 -44.43535562 90.71775151 -50.05126953 90.61798096 C-55.78909671 90.52567448 -61.52726828 90.48475792 -67.265625 90.43945312 C-78.51134345 90.34312381 -89.75549523 90.18965426 -101 90 C-101 89.67 -101 89.34 -101 89 C-100.10321533 89.0030162 -99.20643066 89.00603241 -98.2824707 89.00914001 C-89.80814774 89.03143628 -81.33466782 89.02010891 -72.86044312 88.97153378 C-68.50421501 88.94773536 -64.14875012 88.93668779 -59.79248047 88.95532227 C-55.5839107 88.97284678 -51.37670823 88.95616928 -47.16830444 88.91632271 C-45.56727452 88.90706799 -43.96612529 88.90989128 -42.36514282 88.92530632 C-32.04107035 89.23262823 -32.04107035 89.23262823 -23.11401367 84.64208984 C-21.4086102 82.85781434 -21.4086102 82.85781434 -20 81 C-19.5546138 80.46557281 -19.1092276 79.93114563 -18.65034485 79.38052368 C-3.58107103 60.22889677 -1.01837566 40.34711854 -0.4375 16.875 C-0.3942145 15.23436615 -0.35059737 13.59374101 -0.30664062 11.953125 C-0.20060372 7.96884016 -0.09905423 3.9844643 0 0 Z " fill="#F6A99A" transform="translate(309,188)"></path><path d="M0 0 C15.72844742 23.59267113 16.57814559 56.86998264 16 84 C9.07 84 2.14 84 -5 84 C-3.515 79.05 -3.515 79.05 -2 74 C-1.73472312 70.93563498 -1.57679146 68.08756034 -1.6015625 65.03515625 C-1.59869232 64.23516708 -1.59582214 63.43517792 -1.59286499 62.61094666 C-1.59084387 60.94138876 -1.59623522 59.27180611 -1.60888672 57.60229492 C-1.62512004 55.04357855 -1.60889639 52.48640585 -1.58984375 49.92773438 C-1.59182362 48.29687152 -1.59566197 46.66600963 -1.6015625 45.03515625 C-1.59548981 44.27268082 -1.58941711 43.51020538 -1.5831604 42.72462463 C-1.62178445 38.64847674 -1.62178445 38.64847674 -3.32568359 35.04077148 C-5.76710857 33.5231578 -8.17712381 33.31365291 -11 33 C-9.515 32.505 -9.515 32.505 -8 32 C-8.33 24.74 -8.66 17.48 -9 10 C-7.02 9.34 -5.04 8.68 -3 8 C-1.0549 5.08235 -0.54723683 3.37462715 0 0 Z " fill="#726D6D" transform="translate(446,411)"></path><path d="M0 0 C0.71220703 -0.02900391 1.42441406 -0.05800781 2.15820312 -0.08789062 C5.85078316 -0.13229723 7.97547175 0.18078974 11.13671875 2.14453125 C14.27714939 5.46441507 14.31719784 8.22241535 14.34863281 12.60668945 C14.35824036 13.68823807 14.3678479 14.76978668 14.37774658 15.8841095 C14.38199646 17.05286118 14.38624634 18.22161285 14.390625 19.42578125 C14.39632507 20.62808884 14.40202515 21.83039642 14.40789795 23.06913757 C14.41735075 25.61533731 14.42388304 28.1615493 14.42773438 30.70776367 C14.43743522 34.59901333 14.468455 38.48973382 14.5 42.38085938 C14.50653055 44.85416353 14.51178081 47.32747146 14.515625 49.80078125 C14.5279718 50.96346024 14.5403186 52.12613922 14.55303955 53.3240509 C14.5248581 63.56900305 14.5248581 63.56900305 11.1875 68.3125 C8.09576248 69.85836876 5.59320448 69.60609521 2.1875 69.3125 C-0.01464844 67.98730469 -0.01464844 67.98730469 -1.8125 65.3125 C-2.37572665 61.60817856 -2.27656059 57.94217856 -2.203125 54.203125 C-2.19463531 52.58020538 -2.19463531 52.58020538 -2.18597412 50.92449951 C-2.16358999 47.47004893 -2.11338791 44.01663689 -2.0625 40.5625 C-2.04243772 38.22006707 -2.02418648 35.87761787 -2.0078125 33.53515625 C-1.96371855 27.7939167 -1.89678555 22.05328255 -1.8125 16.3125 C-2.91851562 16.33441406 -4.02453125 16.35632813 -5.1640625 16.37890625 C-8.8125 16.3125 -8.8125 16.3125 -11.1875 15.25 C-13.64539714 12.31943033 -13.8125 10.09160616 -13.8125 6.3125 C-10.00573806 0.27418795 -6.7255893 0.08983423 0 0 Z " fill="#000000" transform="translate(33.8125,245.6875)"></path><path d="M0 0 C0.74636719 -0.01933594 1.49273437 -0.03867188 2.26171875 -0.05859375 C2.99003906 -0.05214844 3.71835937 -0.04570312 4.46875 -0.0390625 C5.45004883 -0.03060303 5.45004883 -0.03060303 6.45117188 -0.02197266 C9.84091386 1.04842966 11.84839436 2.52904572 13.5 5.625 C14.25885103 10.02682352 14.20018205 14.38620195 14.1640625 18.84375 C14.16884613 20.13438354 14.17362976 21.42501709 14.17855835 22.75476074 C14.1859143 25.4818323 14.17526785 28.2080828 14.15185547 30.93505859 C14.12336557 34.42252706 14.13977683 37.90807172 14.16971779 41.39546967 C14.192179 44.73254877 14.17643132 48.06911631 14.1640625 51.40625 C14.17418365 52.65531128 14.18430481 53.90437256 14.19473267 55.19128418 C14.06450092 64.8152854 14.06450092 64.8152854 11.14990234 67.91992188 C7.90926393 70.00510878 6.28503746 70.2692617 2.5 69.625 C-0.6359157 67.84515595 -1.34102736 67.10191793 -2.5 63.625 C-2.58687799 62.07529552 -2.6176866 60.52210293 -2.61352539 58.9699707 C-2.61344986 58.02922195 -2.61337433 57.08847321 -2.61329651 56.11921692 C-2.60813522 55.10663315 -2.60297394 54.09404938 -2.59765625 53.05078125 C-2.5962413 52.01181198 -2.59482635 50.97284271 -2.59336853 49.90238953 C-2.58776656 46.58073052 -2.57521372 43.25913867 -2.5625 39.9375 C-2.55748525 37.68684993 -2.5529223 35.43619881 -2.54882812 33.18554688 C-2.53779649 27.66534163 -2.52105643 22.14517561 -2.5 16.625 C-3.43070312 16.66882813 -4.36140625 16.71265625 -5.3203125 16.7578125 C-8.5 16.625 -8.5 16.625 -11.375 14.5 C-13.5 11.625 -13.5 11.625 -14.125 8.625 C-12.49822348 0.81647272 -6.87481312 -0.17810397 0 0 Z " fill="#000000" transform="translate(415.5,167.375)"></path><path d="M0 0 C0.85464844 -0.02384766 1.70929688 -0.04769531 2.58984375 -0.07226562 C3.41613281 -0.07033203 4.24242187 -0.06839844 5.09375 -0.06640625 C6.21813477 -0.0674939 6.21813477 -0.0674939 7.36523438 -0.06860352 C10.60843737 0.89018877 11.64336578 2.80155327 13.5 5.5625 C14.00793457 8.33203125 14.00793457 8.33203125 14.01757812 11.375 C14.03018677 12.5196875 14.04279541 13.664375 14.05578613 14.84375 C14.04768921 16.0709375 14.03959229 17.298125 14.03125 18.5625 C14.0350769 19.8309375 14.03890381 21.099375 14.04284668 22.40625 C14.04556715 25.08649486 14.04021686 27.76527705 14.02148438 30.4453125 C13.99869395 33.87201508 14.01182313 37.29746444 14.03577423 40.72412109 C14.05374422 44.00362502 14.04114439 47.28297969 14.03125 50.5625 C14.03934692 51.7896875 14.04744385 53.016875 14.05578613 54.28125 C14.04317749 55.4259375 14.03056885 56.570625 14.01757812 57.75 C14.01280457 59.25626953 14.01280457 59.25626953 14.00793457 60.79296875 C13.36308796 64.30901775 11.95361137 66.01113348 9.5 68.5625 C7.5 69.19140625 7.5 69.19140625 5.5 69.125 C4.84 69.12628906 4.18 69.12757813 3.5 69.12890625 C0.3656938 68.24126094 -0.57918966 67.25138758 -2.5 64.5625 C-3.07351901 60.86057491 -2.96403934 57.19109663 -2.890625 53.453125 C-2.88213531 51.83020538 -2.88213531 51.83020538 -2.87347412 50.17449951 C-2.85108999 46.72004893 -2.80088791 43.26663689 -2.75 39.8125 C-2.72993772 37.47006707 -2.71168648 35.12761787 -2.6953125 32.78515625 C-2.65121855 27.0439167 -2.58428555 21.30328255 -2.5 15.5625 C-4.15708984 15.61083984 -4.15708984 15.61083984 -5.84765625 15.66015625 C-9.5 15.5625 -9.5 15.5625 -11.9375 14 C-14.10396028 10.62032196 -14.06288002 8.50266013 -13.5 4.5625 C-10.09917836 -0.603422 -5.62556159 -0.07212258 0 0 Z " fill="#000000" transform="translate(459.5,117.4375)"></path><path d="M0 0 C0.75990234 -0.02900391 1.51980469 -0.05800781 2.30273438 -0.08789062 C3.41551758 -0.10045898 3.41551758 -0.10045898 4.55078125 -0.11328125 C5.22407471 -0.12786377 5.89736816 -0.14244629 6.59106445 -0.1574707 C9.75744427 0.55235591 11.3788724 2.06557109 13.6875 4.3125 C14.32241821 7.08239746 14.32241821 7.08239746 14.33447266 10.30273438 C14.35023346 11.51078735 14.36599426 12.71884033 14.38223267 13.96350098 C14.36705093 15.91516174 14.36705093 15.91516174 14.3515625 17.90625 C14.35493231 19.25859005 14.3597863 20.61092714 14.36605835 21.96325684 C14.37342226 24.79464614 14.36274176 27.62524564 14.33935547 30.45654297 C14.31086547 34.08199677 14.32727239 37.7056001 14.35721779 41.33098602 C14.37530528 44.12267953 14.36952665 46.91393586 14.35657883 49.7056427 C14.3516318 51.69094039 14.3667897 53.67625523 14.38223267 55.66149902 C14.36647186 56.869552 14.35071106 58.07760498 14.33447266 59.32226562 C14.33049469 60.38497681 14.32651672 61.44768799 14.32241821 62.54260254 C13.6875 65.3125 13.6875 65.3125 11.37362671 67.6907959 C8.6875 69.3125 8.6875 69.3125 5.0625 69.25 C1.69937471 68.31579853 0.70757057 68.00082286 -1.3125 65.3125 C-1.67326355 63.09150696 -1.67326355 63.09150696 -1.65307617 60.47387695 C-1.65284958 59.4930867 -1.65262299 58.51229645 -1.65238953 57.50178528 C-1.63690567 56.44545395 -1.62142181 55.38912262 -1.60546875 54.30078125 C-1.60122391 53.21741989 -1.59697906 52.13405853 -1.59260559 51.01786804 C-1.57579569 47.55332723 -1.53813848 44.08936538 -1.5 40.625 C-1.48495619 38.27800318 -1.47126726 35.93099726 -1.45898438 33.58398438 C-1.42588461 27.82662495 -1.37566205 22.06960383 -1.3125 16.3125 C-2.41851562 16.33441406 -3.52453125 16.35632813 -4.6640625 16.37890625 C-8.3125 16.3125 -8.3125 16.3125 -10.6875 15.25 C-13.12331016 12.34576481 -13.24800991 10.05292509 -13.3125 6.3125 C-10.29865289 -0.28926033 -6.68656978 0.0837916 0 0 Z " fill="#000000" transform="translate(97.3125,20.6875)"></path><path d="M0 0 C0.91471573 -0.00761353 1.82943146 -0.01522705 2.77186584 -0.02307129 C4.70424676 -0.03386493 6.63668598 -0.03672838 8.5690918 -0.03222656 C11.52166265 -0.03125444 14.47163257 -0.07287872 17.42382812 -0.1171875 C19.30338001 -0.12239487 21.18294091 -0.12508269 23.0625 -0.125 C23.94284409 -0.14139526 24.82318817 -0.15779053 25.73020935 -0.17468262 C30.15298546 -0.12495252 32.04431635 0.05526332 35.68969727 2.77929688 C37.59765625 5.46875 37.59765625 5.46875 37.66015625 9.09375 C36.44860014 12.94222236 36.09949653 13.63763375 32.59765625 15.46875 C29.46518698 15.93362592 26.35793863 15.93677808 23.1953125 15.9375 C22.28059677 15.94511353 21.36588104 15.95272705 20.42344666 15.96057129 C18.49106574 15.97136493 16.55862652 15.97422838 14.6262207 15.96972656 C11.67364985 15.96875444 8.72367993 16.01037872 5.77148438 16.0546875 C3.89193249 16.05989487 2.01237159 16.06258269 0.1328125 16.0625 C-0.74753159 16.07889526 -1.62787567 16.09529053 -2.53489685 16.11218262 C-6.95767296 16.06245252 -8.84900385 15.88223668 -12.49438477 13.15820312 C-14.40234375 10.46875 -14.40234375 10.46875 -14.46484375 6.84375 C-12.12910494 -0.57565565 -6.7855783 0.00154893 0 0 Z " fill="#050404" transform="translate(244.40234375,236.53125)"></path><path d="M0 0 C1.65 0.66 3.3 1.32 5 2 C5 27.41 5 52.82 5 79 C-1.6 79 -8.2 79 -15 79 C-13.39213122 74.98032804 -11.64275088 71.37331771 -9.625 67.5625 C-3.3083717 55.24753584 -0.97382005 42.6237493 -0.68359375 28.90625 C-0.66281265 28.07411987 -0.64203156 27.24198975 -0.62062073 26.38464355 C-0.55583806 23.75650364 -0.49657588 21.12827375 -0.4375 18.5 C-0.39424678 16.70572029 -0.35063046 14.9114493 -0.30664062 13.1171875 C-0.20023106 8.74488115 -0.09876837 4.37248537 0 0 Z " fill="#716C6C" transform="translate(340,198)"></path></svg>